<?xml version="1.0" encoding="UTF-8"?>
<!DOCTYPE svg PUBLIC "-//W3C//DTD SVG 1.1//EN" "http://www.w3.org/Graphics/SVG/1.1/DTD/svg11.dtd">
<!-- Creator: CorelDRAW -->
<svg xmlns="http://www.w3.org/2000/svg" xml:space="preserve" width="118.533mm" height="33.8666mm" version="1.1" style="shape-rendering:geometricPrecision; text-rendering:geometricPrecision; image-rendering:optimizeQuality; fill-rule:evenodd; clip-rule:evenodd"
viewBox="0 0 11853.32 3386.66"
 xmlns:xlink="http://www.w3.org/1999/xlink"
 xmlns:xodm="http://www.corel.com/coreldraw/odm/2003">
 <defs>
  <style type="text/css">
   <![CDATA[
    .fil0 {fill:#EEEADD;fill-rule:nonzero}
   ]]>
  </style>
 </defs>
 <g id="Layer_x0020_1">
  <metadata id="CorelCorpID_0Corel-Layer"/>
  <path class="fil0" d="M5377.39 2566.4c-10.72,0 -45.56,2.24 -104.51,6.7 -58.96,4.47 -114.33,6.69 -166.14,6.69 -51.81,0 -94.68,-5.35 -128.63,-16.07 -26.8,-8.94 -45.55,-20.54 -56.27,-34.84 -8.93,-14.29 -16.08,-35.73 -21.44,-64.3 -8.94,-55.39 -23.22,-142.03 -42.88,-259.94 -5.35,-26.8 -11.6,-69.68 -18.76,-128.63 -7.14,-58.95 -14.73,-111.2 -22.77,-156.76 -8.04,-45.56 -18.31,-87.09 -30.82,-124.61 -14.29,-8.93 -27.68,-5.35 -40.19,10.72 -5.36,7.15 -9.83,20.55 -13.4,40.19 -12.51,69.68 -36.62,174.63 -72.35,314.87 -35.73,140.24 -59.85,246.98 -72.36,320.23 -3.58,17.87 -8.04,31.26 -13.39,40.19 -8.93,10.72 -26.8,19.66 -53.6,26.8 -103.61,21.44 -223.31,25.9 -359.08,13.41 -44.66,-3.58 -78.6,-10.73 -101.83,-21.45 -16.08,-5.35 -30.37,-14.73 -42.88,-28.14 -12.5,-13.39 -22.32,-27.69 -29.47,-42.87 -7.15,-15.18 -13.85,-33.5 -20.1,-54.94 -6.25,-21.43 -10.72,-40.19 -13.4,-56.27 -2.68,-16.07 -6.25,-34.83 -10.71,-56.27 -4.48,-21.44 -7.59,-37.51 -9.38,-48.23 -25.01,-114.34 -48.24,-237.61 -69.68,-369.81 -21.44,-139.34 -52.7,-388.56 -93.79,-747.64 -1.78,-7.14 -4.91,-27.23 -9.38,-60.29 -4.46,-33.05 -7.59,-60.29 -9.37,-81.73 -1.79,-21.44 -3.58,-47.79 -5.37,-79.05 -1.79,-31.27 -0.45,-58.07 4.03,-80.39 4.46,-22.34 12.05,-40.65 22.77,-54.94 12.51,-17.86 41.09,-27.69 85.75,-29.48 513.94,-30.11 171.35,196.6 596.76,141.37 172.53,-22.41 -89.27,-154.94 341.14,-176.21 457.2,-22.66 80.17,192.93 529.04,158.41 141.95,-10.91 -57.17,-131.61 363.3,-131.61 51.81,0 89.33,6.26 112.55,18.76 8.93,5.37 16.53,11.17 22.78,17.42 6.25,6.26 11.62,12.51 16.08,18.76 4.47,6.25 7.14,13.85 8.04,22.78 0.89,8.93 1.78,16.08 2.68,21.44 0.89,5.35 0,13.4 -2.68,24.11 -2.69,10.72 -4.46,18.31 -5.36,22.78 -0.89,4.47 -3.13,12.95 -6.71,25.46 -3.56,12.5 -6.25,20.54 -8.04,24.12 -3.56,14.28 -23.22,112.54 -58.95,294.76 -5.35,33.95 -22.32,118.81 -50.91,254.57 -28.58,135.78 -49.12,240.29 -61.63,313.54 -46.45,239.38 -102.72,471.63 -168.83,696.72 -7.14,23.22 -15.18,39.3 -24.11,48.23 -14.29,14.3 -42.88,21.44 -85.75,21.44z"/>
  <path class="fil0" d="M7676.5 1059.91c38.04,91.11 63.76,220.63 77.18,388.56 13.43,214.37 3.37,382.3 -30.19,503.78 -51.46,187.59 -156.62,334.07 -315.46,439.48 -96.22,62.53 -215.91,105.4 -359.1,128.63 -143.19,23.22 -280.78,24.12 -412.79,2.67 -111.87,-17.86 -205.27,-47.78 -280.22,-89.77 -74.96,-41.98 -138.16,-99.59 -189.62,-172.84 -55.93,-78.6 -100.12,-160.77 -132.56,-246.53 -32.44,-85.75 -53.14,-172.39 -62.08,-259.93 -4.48,-67.89 -4.48,-142.03 0,-222.42 17.9,-234.03 85.01,-419.82 201.35,-557.38 78.31,-94.68 188.5,-171.05 330.57,-229.12 142.07,-58.05 288.06,-85.3 437.95,-81.72 174.52,3.57 327.21,40.19 458.09,109.86 130.88,69.68 223.18,165.25 276.88,286.73z"/>
  <path class="fil0" d="M9715.99 1059.9c38.04,91.12 63.76,220.63 77.18,388.57 13.43,214.37 3.37,382.3 -30.19,503.78 -51.46,187.58 -156.62,334.07 -315.46,439.47 -96.22,62.53 -215.92,105.4 -359.1,128.63 -143.19,23.22 -280.78,24.12 -412.79,2.68 -111.87,-17.87 -205.27,-47.79 -280.22,-89.78 -74.96,-41.98 -138.16,-99.59 -189.62,-172.84 -55.93,-78.6 -100.12,-160.77 -132.56,-246.53 -32.44,-85.75 -53.14,-172.39 -62.08,-259.93 -4.48,-67.88 -4.48,-142.03 0,-222.42 17.9,-234.02 85.01,-419.82 201.35,-557.38 78.31,-94.68 188.5,-171.05 330.57,-229.11 142.07,-58.06 288.06,-85.3 437.95,-81.73 174.52,3.57 327.21,40.19 458.09,109.87 130.88,69.67 223.18,165.24 276.88,286.72z"/>
  <path class="fil0" d="M10085.25 1002.66c2.11,-48.5 8.08,-89.85 18.87,-123.98 14.37,-53.92 39.52,-93.44 75.46,-118.59 35.93,-23.37 93.44,-36.85 172.49,-40.44 80.86,-1.79 168.01,-3.14 261.45,-4.04 93.42,-0.9 176.98,-0.9 250.64,0 73.67,0.9 161.72,1.8 264.14,2.7 102.41,0.89 186.86,1.34 253.34,1.34 37.74,0 64.69,4.5 80.86,13.48 30.55,17.97 48.52,60.2 53.91,126.67 3.59,43.13 2.69,127.58 -2.7,253.36 -5.38,66.48 -22.45,106.9 -51.21,121.28 -7.18,5.4 -17.96,8.99 -32.34,10.78 -68.28,14.38 -166.21,21.56 -293.78,21.56 -127.57,0 -213.81,1.8 -258.74,5.39 -35.93,5.4 -55.7,17.07 -59.3,35.04 -4.27,34.21 8.43,116.1 52.89,121.91 68.31,8.71 184.18,11.49 347.68,8.09 8.98,-0.18 24.27,-0.9 45.82,-2.69 21.56,-1.8 41.33,-2.7 59.29,-2.7 17.98,0 36.85,0.45 56.61,1.35 19.77,0.9 37.74,4.94 53.9,12.12 16.18,7.18 28.26,15.92 35.04,26.96 7.58,12.34 11.89,33.23 13.48,61.99 0.2,3.58 1.8,24.25 5.39,61.98 3.59,37.74 5.83,68.74 6.73,93 0.89,24.25 0.45,53.9 -1.35,88.94 -1.79,35.03 -7.64,63.78 -17.51,86.24 -9.88,22.45 -22.21,40.23 -39.08,49.87 -8.4,4.79 -22.98,9.76 -43.12,13.46 -48.23,8.89 -117.25,12.13 -206.18,14.83 -88.95,2.69 -148.6,6.89 -179.24,9.44 -12.53,1.03 -28.31,0.89 -47.17,2.69 -18.87,1.8 -33.24,3.15 -43.12,4.04 -9.88,0.9 -22.01,2.7 -36.38,5.4 -14.37,2.69 -25.17,6.73 -32.35,12.12 -7.19,5.39 -15.27,12.58 -24.26,21.57 -8.98,8.98 -15.27,21.11 -18.87,36.38 -3.59,15.27 -6.92,32.75 -8.08,52.56 -11.41,194.01 -13.65,271.68 -28.62,374.01 -6.58,45 -17.07,75.46 -29.65,91.63 -21.56,26.96 -67.38,43.13 -137.46,48.52 -59.3,1.79 -98.83,2.69 -118.59,2.69 -19.76,0 -59.29,-2.24 -118.59,-6.73 -59.29,-4.5 -99.73,-7.64 -121.28,-9.44 -66.49,-3.59 -109.61,-18.86 -129.38,-45.82 -12.57,-17.97 -21.18,-50.28 -21.56,-97.02 -5,-612.71 -16.59,-901.38 -19.88,-1007.39 -3.89,-125.76 6.73,-317.75 11.8,-434.55z"/>
  <path class="fil0" d="M2938.88 2230.15c5.36,-7.15 9.83,-19.68 13.41,-37.56 12.53,-93.01 7.15,-165.47 -16.09,-217.35 -12.53,-28.6 -26.4,-50.96 -41.59,-67.07 -15.21,-16.09 -30.41,-20.56 -45.62,-13.41 -15.2,7.15 -25.49,29.52 -30.85,67.08 -8.94,66.18 -10.74,115.37 -5.36,147.57 8.94,59.03 33.09,99.27 72.43,120.74 21.47,12.52 39.35,12.52 53.67,0zm-110.01 -1008.85c17.89,-123.43 4.47,-197.65 -40.25,-222.7 -28.62,-16.1 -51.87,-5.36 -69.75,32.2 -25.05,50.07 -20.58,112.7 13.41,187.82 8.93,19.68 21.01,34.87 36.22,45.6 15.2,10.74 29.06,10.74 41.6,0 10.72,-7.15 16.98,-21.45 18.77,-42.92zm434.66 190.5c0,16.1 12.53,31.3 37.56,45.62 53.66,33.98 101.97,75.57 144.89,124.75 42.94,49.2 77.36,106.44 103.3,171.73 25.94,65.29 36.23,130.14 30.87,194.53 -5.38,57.22 -22.37,114.46 -50.99,171.71 -39.34,76.92 -92.12,145.78 -158.3,206.6 -66.18,60.82 -138.63,108.67 -217.33,143.55 -78.71,34.87 -161.89,60.81 -249.53,77.81 -87.65,16.99 -174.86,23.7 -261.6,20.13 -86.76,-3.58 -168.59,-16.11 -245.51,-37.58 -62.61,-17.88 -105.53,-42.93 -128.79,-75.12 -32.2,-41.14 -54.56,-99.73 -67.08,-175.74 -12.53,-76.03 -19.22,-172.17 -20.12,-288.44 -0.89,-116.27 -2.24,-180.66 -4.03,-193.18 -7.15,-93.01 -17,-232.54 -29.51,-418.57 -12.52,-186.03 -22.37,-325.54 -29.52,-418.56 -5.36,-73.35 -0.89,-127.01 13.43,-161 7.15,-17.87 17.88,-34.87 32.2,-50.96 42.92,-50.1 106.42,-78.72 190.49,-85.87 257.57,-16.1 465.97,-4.47 625.16,34.88 150.26,37.56 254.89,99.27 313.92,185.14 44.73,73.33 63.96,155.61 57.7,246.84 -6.27,91.23 -30.86,173.52 -73.79,246.85 -8.95,14.32 -13.42,25.94 -13.42,34.88z"/>
  <path class="fil0" d="M1293.23 2237.7c5.37,-7.15 9.84,-19.68 13.41,-37.56 12.53,-93.01 7.15,-165.47 -16.09,-217.35 -12.53,-28.6 -26.39,-50.96 -41.59,-67.07 -15.21,-16.09 -30.41,-20.56 -45.62,-13.41 -15.2,7.15 -25.49,29.52 -30.85,67.08 -8.94,66.18 -10.74,115.37 -5.36,147.57 8.94,59.03 33.09,99.27 72.44,120.74 21.47,12.52 39.34,12.52 53.66,0zm-110.01 -1008.85c17.89,-123.43 4.47,-197.65 -40.24,-222.7 -28.62,-16.1 -51.88,-5.36 -69.76,32.2 -25.05,50.07 -20.58,112.7 13.41,187.82 8.94,19.68 21.01,34.87 36.23,45.6 15.19,10.74 29.05,10.74 41.59,0 10.72,-7.15 16.98,-21.45 18.77,-42.92zm434.66 190.49c0,16.11 12.53,31.31 37.56,45.63 53.67,33.98 101.97,75.57 144.89,124.75 42.94,49.2 77.37,106.44 103.31,171.73 25.94,65.29 36.22,130.13 30.86,194.53 -5.38,57.22 -22.36,114.46 -50.99,171.71 -39.34,76.92 -92.12,145.78 -158.3,206.6 -66.18,60.82 -138.63,108.67 -217.33,143.54 -78.71,34.88 -161.89,60.82 -249.52,77.82 -87.66,16.99 -174.87,23.7 -261.61,20.12 -86.76,-3.57 -168.59,-16.1 -245.51,-37.57 -62.61,-17.88 -105.53,-42.93 -128.79,-75.12 -32.2,-41.14 -54.56,-99.73 -67.07,-175.74 -12.54,-76.03 -19.23,-172.17 -20.12,-288.44 -0.9,-116.27 -2.25,-180.67 -4.04,-193.18 -7.15,-93.01 -17,-232.54 -29.51,-418.57 -12.51,-186.03 -22.36,-325.54 -29.52,-418.56 -5.36,-73.35 -0.89,-127.01 13.43,-161 7.15,-17.87 17.88,-34.88 32.2,-50.96 42.92,-50.1 106.42,-78.72 190.49,-85.87 257.58,-16.11 465.97,-4.47 625.16,34.88 150.26,37.56 254.89,99.27 313.92,185.13 44.73,73.34 63.96,155.62 57.7,246.85 -6.27,91.23 -30.86,173.52 -73.78,246.85 -8.96,14.32 -13.43,25.94 -13.43,34.87z"/>
 </g>
</svg>
