<?xml version="1.0" encoding="UTF-8"?>
<!DOCTYPE svg PUBLIC "-//W3C//DTD SVG 1.1//EN" "http://www.w3.org/Graphics/SVG/1.1/DTD/svg11.dtd">
<!-- Creator: CorelDRAW -->
<svg xmlns="http://www.w3.org/2000/svg" xml:space="preserve" width="118.533mm" height="33.8666mm" version="1.1" style="shape-rendering:geometricPrecision; text-rendering:geometricPrecision; image-rendering:optimizeQuality; fill-rule:evenodd; clip-rule:evenodd"
viewBox="0 0 11853.32 3386.66"
 xmlns:xlink="http://www.w3.org/1999/xlink"
 xmlns:xodm="http://www.corel.com/coreldraw/odm/2003">
 <defs>
  <style type="text/css">
   <![CDATA[
    .fil0 {fill:#EEEADD;fill-rule:nonzero}
   ]]>
  </style>
 </defs>
 <g id="Layer_x0020_1">
  <metadata id="CorelCorpID_0Corel-Layer"/>
  <path class="fil0" d="M1500.12 1267.67c17.65,3.92 48.04,11.76 91.17,23.52 43.14,11.77 75,20.1 95.59,25 20.58,4.9 50.48,12.75 89.7,23.53 39.21,10.78 70.09,20.1 92.64,27.94 22.55,7.84 51.47,18.14 86.76,30.88 35.29,12.75 65.19,25.49 89.7,38.23 24.51,12.75 51.47,26.96 80.88,42.65 29.41,15.68 56.86,32.35 82.34,50 72.55,50.97 126.47,118.62 161.76,202.93 35.29,84.3 50,171.55 44.12,261.75 -5.89,90.19 -28.43,175.48 -67.65,255.86 -49.01,96.08 -118.13,178.92 -207.34,248.52 -89.21,69.6 -187.73,120.09 -295.57,151.46 -176.46,50.98 -359.29,48.53 -548.5,-7.35 -189.2,-55.88 -351.45,-150.48 -486.74,-283.81 -19.6,-17.65 -31.37,-34.31 -35.29,-50 -1.96,-15.68 2.94,-36.27 14.71,-61.76 62.74,-129.4 146.07,-240.18 249.98,-332.33 13.73,-13.73 25.49,-22.55 35.3,-26.47 27.44,-9.8 63.72,-1.96 108.81,23.53 154.9,78.42 315.67,142.15 482.33,191.16 50.98,13.73 89.21,14.71 114.7,2.94 60.78,-25.48 63.23,-59.8 7.35,-102.93 -55.88,-43.14 -112.25,-76.47 -169.11,-100 -178.42,-68.62 -305.86,-118.62 -382.33,-149.99 -101.95,-39.21 -175.48,-76.46 -220.58,-111.76 -80.38,-60.78 -134.3,-144.6 -161.75,-251.45 -27.45,-106.86 -23.53,-208.32 11.76,-304.4 33.33,-94.11 88.23,-177.44 164.7,-249.98 76.47,-72.55 164.7,-126.47 264.69,-161.76 188.23,-68.62 423.51,-72.54 705.84,-11.76 43.14,9.8 84.31,22.06 123.53,36.76 39.21,14.71 79.89,33.82 122.05,57.35 42.15,23.53 73.03,54.41 92.64,92.64 19.61,38.24 24.51,79.9 14.7,125 -23.52,103.91 -68.62,197.04 -135.28,279.39 -7.84,7.84 -16.18,14.22 -25,19.12 -8.82,4.9 -19.12,8.33 -30.88,10.29 -11.77,1.96 -23.53,2.94 -35.29,2.94 -11.77,0 -25,-1.47 -39.71,-4.41 -14.7,-2.94 -27.45,-5.88 -38.23,-8.82 -10.78,-2.94 -24.02,-7.35 -39.7,-13.24 -15.69,-5.88 -27.45,-10.29 -35.3,-13.23 -7.84,-2.94 -19.11,-6.86 -33.82,-11.77 -14.7,-4.9 -23.04,-8.33 -25,-10.29 -5.88,-1.96 -19.11,-6.86 -39.7,-14.7 -20.59,-7.85 -33.33,-12.75 -38.23,-14.71 -4.9,-1.96 -16.18,-6.37 -33.82,-13.23 -17.65,-6.87 -29.9,-11.77 -36.77,-14.71 -6.86,-2.94 -18.13,-6.86 -33.82,-11.76 -15.68,-4.9 -28.43,-8.34 -38.23,-10.3 -9.81,-1.96 -21.57,-4.41 -35.29,-7.35 -13.73,-2.94 -26.47,-5.39 -38.24,-7.35 -11.76,-1.96 -24.51,-2.94 -38.23,-2.94 -31.37,-3.92 -60.78,-4.9 -88.23,-2.94 -52.94,1.96 -83.33,18.62 -91.17,49.99 -7.84,23.53 0.98,45.1 26.47,64.71 13.72,11.76 37.25,21.56 70.58,29.41zm2245.99 420.56l0 -5.88c1.96,-50.98 0,-138.23 -5.88,-261.75 -1.96,-33.33 -8.83,-60.78 -20.59,-82.35 -11.76,-21.57 -33.33,-18.63 -64.7,8.82 -5.88,9.81 -11.77,26.47 -17.65,50 -17.64,94.11 -31.37,179.4 -41.17,255.87 -1.96,23.53 0.98,39.21 8.82,47.05 5.88,3.93 16.67,5.89 32.35,5.89l82.35 0c9.8,0 16.67,-0.98 20.59,-2.94 1.96,-3.93 3.92,-8.83 5.88,-14.71zm402.92 -497.03c82.35,258.81 148.03,489.19 197.04,691.14 49.02,201.95 81.37,400.96 97.06,597.02 0,3.92 0,10.79 0,20.59 3.92,41.17 0,71.56 -11.77,91.17 -9.8,15.69 -27.45,31.37 -52.93,47.06 -94.12,49.01 -222.54,67.64 -385.28,55.88 -49.01,-3.93 -87.25,-21.57 -114.7,-52.94 -19.6,-25.49 -33.33,-66.67 -41.17,-123.52 -41.17,-258.81 -65.68,-407.82 -73.53,-447.04 -1.96,-9.8 -4.9,-16.66 -8.82,-20.59 -3.92,-5.88 -11.76,-9.8 -23.53,-11.76 -11.76,-1.96 -22.54,-1.96 -32.35,0 -9.8,1.96 -22.05,4.41 -36.76,7.35 -14.71,2.94 -24.02,5.4 -27.94,7.36 -17.65,1.96 -29.41,4.9 -35.29,8.82 -7.84,7.84 -14.71,22.55 -20.59,44.11 -25.49,115.68 -53.92,211.76 -85.29,288.22 -3.92,11.77 -12.25,39.22 -25,82.35 -12.74,43.14 -25.98,77.45 -39.7,102.94 -13.72,25.49 -33.33,46.07 -58.82,61.76 -27.45,13.72 -64.7,19.6 -111.76,17.64 -86.27,-1.96 -170.58,-14.7 -252.93,-38.23 -33.33,-9.8 -57.84,-22.55 -73.52,-38.23 -33.33,-31.37 -42.16,-91.17 -26.47,-179.4 39.21,-198.03 111.76,-486.25 217.63,-864.66 107.84,-384.29 189.21,-672.51 244.11,-864.66 5.88,-19.6 11.76,-32.35 17.64,-38.23 9.81,-9.8 27.45,-16.67 52.94,-20.59 166.66,-17.64 331.36,-7.84 494.09,29.41 27.45,5.88 47.06,13.73 58.82,23.53 11.77,9.8 23.53,30.39 35.29,61.76 15.69,43.14 30.4,91.66 44.12,145.58 13.72,53.92 27.45,109.31 41.17,166.17 13.73,56.86 26.47,106.86 38.24,149.99zm1498.97 76.47c17.65,3.92 48.04,11.76 91.17,23.52 43.14,11.77 75,20.1 95.59,25 20.58,4.9 50.48,12.75 89.7,23.53 39.21,10.78 70.09,20.1 92.64,27.94 22.55,7.84 51.47,18.14 86.76,30.88 35.29,12.75 65.19,25.49 89.7,38.23 24.51,12.75 51.47,26.96 80.88,42.65 29.41,15.68 56.86,32.35 82.34,50 72.55,50.97 126.47,118.62 161.76,202.93 35.29,84.3 50,171.55 44.12,261.75 -5.89,90.19 -28.43,175.48 -67.65,255.86 -49.01,96.08 -118.13,178.92 -207.34,248.52 -89.21,69.6 -187.73,120.09 -295.57,151.46 -176.46,50.98 -359.29,48.53 -548.5,-7.35 -189.2,-55.88 -351.45,-150.48 -486.74,-283.81 -19.6,-17.65 -31.37,-34.31 -35.29,-50 -1.96,-15.68 2.94,-36.27 14.71,-61.76 62.74,-129.4 146.07,-240.18 249.98,-332.33 13.73,-13.73 25.49,-22.55 35.3,-26.47 27.44,-9.8 63.72,-1.96 108.81,23.53 154.9,78.42 315.67,142.15 482.33,191.16 50.98,13.73 89.21,14.71 114.7,2.94 60.78,-25.48 63.23,-59.8 7.35,-102.93 -55.88,-43.14 -112.25,-76.47 -169.11,-100 -178.42,-68.62 -305.86,-118.62 -382.33,-149.99 -101.95,-39.21 -175.48,-76.46 -220.58,-111.76 -80.38,-60.78 -134.3,-144.6 -161.75,-251.45 -27.45,-106.86 -23.53,-208.32 11.76,-304.4 33.33,-94.11 88.23,-177.44 164.7,-249.98 76.47,-72.55 164.7,-126.47 264.69,-161.76 188.23,-68.62 423.51,-72.54 705.84,-11.76 43.14,9.8 84.31,22.06 123.53,36.76 39.21,14.71 79.89,33.82 122.05,57.35 42.15,23.53 73.03,54.41 92.64,92.64 19.61,38.24 24.51,79.9 14.7,125 -23.52,103.91 -68.62,197.04 -135.28,279.39 -7.84,7.84 -16.18,14.22 -25,19.12 -8.82,4.9 -19.12,8.33 -30.88,10.29 -11.77,1.96 -23.53,2.94 -35.29,2.94 -11.77,0 -25,-1.47 -39.71,-4.41 -14.7,-2.94 -27.45,-5.88 -38.23,-8.82 -10.78,-2.94 -24.02,-7.35 -39.7,-13.24 -15.69,-5.88 -27.45,-10.29 -35.3,-13.23 -7.84,-2.94 -19.11,-6.86 -33.82,-11.77 -14.7,-4.9 -23.04,-8.33 -25,-10.29 -5.88,-1.96 -19.11,-6.86 -39.7,-14.7 -20.59,-7.85 -33.33,-12.75 -38.23,-14.71 -4.9,-1.96 -16.18,-6.37 -33.82,-13.23 -17.65,-6.87 -29.9,-11.77 -36.77,-14.71 -6.86,-2.94 -18.13,-6.86 -33.82,-11.76 -15.68,-4.9 -28.43,-8.34 -38.23,-10.3 -9.81,-1.96 -21.57,-4.41 -35.29,-7.35 -13.73,-2.94 -26.47,-5.39 -38.24,-7.35 -11.76,-1.96 -24.51,-2.94 -38.23,-2.94 -31.37,-3.92 -60.78,-4.9 -88.23,-2.94 -52.94,1.96 -83.33,18.62 -91.17,49.99 -7.84,23.53 0.98,45.1 26.47,64.71 13.72,11.76 37.25,21.56 70.58,29.41zm2937.13 -641.14c35.29,3.92 59.8,9.8 73.52,17.64 33.33,15.69 54.9,46.08 64.7,91.17 9.81,43.14 16.18,92.65 19.12,148.52 2.94,55.88 4.41,104.41 4.41,145.58 0,41.18 -1.47,94.61 -4.41,160.29 -2.94,65.68 -4.41,113.23 -4.41,142.64 -1.96,158.81 -4.9,399 -8.82,720.55 -3.93,213.71 -5.89,334.29 -5.89,361.74 0,9.8 0.98,27.94 2.94,54.41 1.97,26.47 2.95,48.53 2.95,66.17 0,17.65 -2.46,37.25 -7.36,58.82 -4.9,21.57 -14.21,38.23 -27.94,50 -15.68,13.72 -44.11,23.53 -85.29,29.41 -101.95,9.8 -203.91,12.74 -305.86,8.82 -1.96,0 -18.63,0 -50,0 -31.37,0 -56.37,-0.98 -74.99,-2.94 -18.63,-1.96 -39.22,-6.37 -61.76,-13.23 -22.55,-6.87 -37.75,-16.18 -45.59,-27.94 -7.84,-11.77 -11.76,-30.39 -11.76,-55.88 -1.97,-52.94 -3.44,-106.37 -4.42,-160.29 -0.98,-53.92 -1.96,-104.4 -2.94,-151.46 -0.98,-47.06 -2.45,-99.99 -4.41,-158.81 0,-25.49 -2.94,-44.12 -8.82,-55.88 -15.69,-23.53 -52.94,-34.31 -111.76,-32.35 -58.82,1.96 -94.11,14.7 -105.88,38.23 -5.88,11.76 -7.84,29.41 -5.88,52.94 7.84,115.68 11.77,183.32 11.77,202.93 0,15.68 -0.49,44.11 -1.47,85.29 -0.99,41.17 -1.48,73.52 -1.48,97.05 0,1.96 0.98,11.76 2.95,29.41 1.96,17.65 2.45,29.41 1.47,35.29 -0.98,5.88 -3.44,14.71 -7.36,26.47 -3.92,11.76 -10.78,21.57 -20.58,29.41 -15.69,15.69 -46.08,24.51 -91.17,26.47 -37.26,1.96 -92.16,4.9 -164.7,8.82 -72.55,3.92 -125.48,6.87 -158.82,8.83 -70.58,3.92 -119.6,-6.87 -147.05,-32.36 -21.56,-19.6 -36.27,-58.82 -44.11,-117.64 -80.39,-560.75 -105.88,-1126.4 -76.47,-1696.96 1.96,-43.13 9.81,-74.5 23.53,-94.11 19.61,-29.41 59.8,-49.02 120.58,-58.82 96.07,-15.69 190.19,-22.55 282.34,-20.59 7.84,0 25.49,-0.49 52.94,-1.47 27.45,-0.98 49.99,-0.98 67.64,0 17.65,0.98 37.25,4.41 58.82,10.3 21.57,5.88 37.25,15.68 47.06,29.41 15.68,17.64 23.52,49.01 23.52,94.11 11.77,237.24 18.63,377.43 20.59,420.56 1.96,31.37 7.84,52.94 17.65,64.7 11.76,15.69 34.31,24.51 67.64,26.47 56.86,5.89 94.11,0.98 111.76,-14.7 7.84,-7.84 12.74,-23.53 14.7,-47.06 19.61,-182.34 32.36,-299 38.24,-349.98 7.84,-94.11 30.39,-157.83 67.64,-191.16 29.41,-25.49 77.45,-43.14 144.11,-52.94 98.03,-13.73 200.97,-15.69 308.81,-5.88zm1537.2 1061.7l0 -5.88c1.96,-50.98 0,-138.23 -5.88,-261.75 -1.96,-33.33 -8.83,-60.78 -20.59,-82.35 -11.76,-21.57 -33.33,-18.63 -64.7,8.82 -5.88,9.81 -11.77,26.47 -17.65,50 -17.64,94.11 -31.37,179.4 -41.17,255.87 -1.96,23.53 0.98,39.21 8.82,47.05 5.88,3.93 16.67,5.89 32.35,5.89l82.35 0c9.8,0 16.67,-0.98 20.59,-2.94 1.96,-3.93 3.92,-8.83 5.88,-14.71zm402.92 -497.03c82.35,258.81 148.03,489.19 197.04,691.14 49.02,201.95 81.37,400.96 97.06,597.02 0,3.92 0,10.79 0,20.59 3.92,41.17 0,71.56 -11.77,91.17 -9.8,15.69 -27.45,31.37 -52.93,47.06 -94.12,49.01 -222.54,67.64 -385.28,55.88 -49.01,-3.93 -87.25,-21.57 -114.7,-52.94 -19.6,-25.49 -33.33,-66.67 -41.17,-123.52 -41.17,-258.81 -65.68,-407.82 -73.53,-447.04 -1.96,-9.8 -4.9,-16.66 -8.82,-20.59 -3.92,-5.88 -11.76,-9.8 -23.53,-11.76 -11.76,-1.96 -22.54,-1.96 -32.35,0 -9.8,1.96 -22.05,4.41 -36.76,7.35 -14.71,2.94 -24.02,5.4 -27.94,7.36 -17.65,1.96 -29.41,4.9 -35.29,8.82 -7.84,7.84 -14.71,22.55 -20.59,44.11 -25.49,115.68 -53.92,211.76 -85.29,288.22 -3.92,11.77 -12.25,39.22 -25,82.35 -12.74,43.14 -25.98,77.45 -39.7,102.94 -13.72,25.49 -33.33,46.07 -58.82,61.76 -27.45,13.72 -64.7,19.6 -111.76,17.64 -86.27,-1.96 -170.58,-14.7 -252.93,-38.23 -33.33,-9.8 -57.84,-22.55 -73.52,-38.23 -33.33,-31.37 -42.16,-91.17 -26.47,-179.4 39.21,-198.03 111.76,-486.25 217.63,-864.66 107.84,-384.29 189.21,-672.51 244.11,-864.66 5.88,-19.6 11.76,-32.35 17.64,-38.23 9.81,-9.8 27.45,-16.67 52.94,-20.59 166.66,-17.64 331.36,-7.84 494.09,29.41 27.45,5.88 47.06,13.73 58.82,23.53 11.77,9.8 23.53,30.39 35.29,61.76 15.69,43.14 30.4,91.66 44.12,145.58 13.72,53.92 27.45,109.31 41.17,166.17 13.73,56.86 26.47,106.86 38.24,149.99z"/>
 </g>
</svg>
